<svg xmlns="http://www.w3.org/2000/svg" viewBox="0 0 34.87 49.61"><defs><style>.cls-3{fill-rule:evenodd;fill:#201600}</style></defs><g id="Слой_2" data-name="Слой 2"><g id="_1" data-name="???? 1"><path d="M.38 0h.1l34 34v.1H.38V0Zm8.2 0L34.5 25.92v-8.14L16.72 0Zm16.24 0 9.68 9.68V0Z" style="fill-rule:evenodd;fill:#5eb7c6"/><path d="M8.61 17.56a8.19 8.19 0 1 1-8.19 8.19 8.21 8.21 0 0 1 8.19-8.19Z" style="fill:#4a7b84;fill-rule:evenodd"/><path class="cls-3" d="M5.58 43.09v4.31h2.17a2.74 2.74 0 0 0 .91-.2.94.94 0 0 0 .47-.54 3.4 3.4 0 0 0 .16-1.17v-.17c0-1.41-.41-2.15-1.22-2.23Zm-.94 6.52v-1.36H2.21a2.74 2.74 0 0 1-.73-.13 2 2 0 0 1-.54-.28 7.28 7.28 0 0 1-.61-.53A3.39 3.39 0 0 1 0 45.49v-.8a2.2 2.2 0 0 1 .35-1.25 2.29 2.29 0 0 1 1-.86 2.8 2.8 0 0 1 1.33-.31h2v-.83h.86v.83h2a3 3 0 0 1 1.34.31 2.41 2.41 0 0 1 1 .86 2.21 2.21 0 0 1 .36 1.25v.8a3.42 3.42 0 0 1-.31 1.82A4.49 4.49 0 0 1 9 48a2.48 2.48 0 0 1-1 .24H5.58v1.36Zm-3.37-6a.89.89 0 0 0-.27.49 4.22 4.22 0 0 0-.07.9s0 .11 0 .2a2.36 2.36 0 0 1 0 .25 3.45 3.45 0 0 0 .15 1.17.92.92 0 0 0 .48.54 2.62 2.62 0 0 0 .91.2h2.17v-4.27H2.17a1.77 1.77 0 0 0-.9.54ZM11.28 41.38h.94v7.48L17 41.38h1.57v8.19h-.94v-7.4l-4.79 7.4h-1.56v-8.19zM26.48 41.38v8.19h-.97v-3.8l.01-3.57H20.5v7.37h-.95v-8.19h6.93zM27.59 41.38h.93v7.48l4.79-7.48h1.56v8.19h-.93v-7.4l-4.8 7.4h-1.55v-8.19z"/></g></g></svg>