<svg xmlns="http://www.w3.org/2000/svg" width="664.834" height="664.834" xml:space="preserve"><g transform="translate(-6 -85.89)"><linearGradient id="a" gradientUnits="userSpaceOnUse" x1="99.134" y1="179.024" x2="569.241" y2="649.131"><stop offset="0" style="stop-color:#eeebe9"/><stop offset="0" style="stop-color:#f0e3ca"/><stop offset="0" style="stop-color:#f3d9a1"/><stop offset="0" style="stop-color:#f5d07b"/><stop offset="0" style="stop-color:#f7c85b"/><stop offset="0" style="stop-color:#f9c23f"/><stop offset="0" style="stop-color:#fbbc29"/><stop offset="0" style="stop-color:#fcb818"/><stop offset="0" style="stop-color:#fcb50d"/><stop offset="0" style="stop-color:#fdb306"/><stop offset="0" style="stop-color:#fdb304"/><stop offset=".299" style="stop-color:#fdb005"/><stop offset=".529" style="stop-color:#fca608"/><stop offset=".735" style="stop-color:#fa960c"/><stop offset=".927" style="stop-color:#f77f13"/><stop offset="1" style="stop-color:#f67416"/></linearGradient><circle cx="338.417" cy="418.307" r="332.417" style="fill:url(#a)"/><path d="M203.126 165.068a6.29 6.29 0 0 1 2.089-3.751c4.656-4.044 20.78-17.01 43.785-24.26 27.5-8.667 48.833-15.667 61-15.667 12.167 0 21.667 9 15.833 20.583-5.833 11.583-21.851 43.773-25.583 85.417-3.75 41.833-1.222 90.971-1.25 95.25-.042 6.25-2.333 17.489-17 17.489s-26.167-11.906-43.833-41.406c-17.667-29.5-32.75-73.583-34.333-91.333-1.365-15.294-1.894-34.981-.708-42.322z" style="fill:#fff"/><radialGradient id="b" cx="276.51" cy="319.3" r="17.084" fx="274.804" fy="318.093" gradientTransform="rotate(25.001 282.517 323.625)" gradientUnits="userSpaceOnUse"><stop offset="0" style="stop-color:#eeebe9"/><stop offset="0" style="stop-color:#f9f8f8"/><stop offset="0" style="stop-color:#fff"/><stop offset=".102" style="stop-color:#f0f0f0"/><stop offset=".297" style="stop-color:#c9c9c9"/><stop offset=".366" style="stop-color:#bababa"/><stop offset=".4" style="stop-color:#b4b4b4"/><stop offset=".81" style="stop-color:#696e6f"/><stop offset="1" style="stop-color:#4c5354"/></radialGradient><circle cx="281.996" cy="323.542" r="17.083" style="fill:url(#b)"/><path d="M348.749 130.669a6.29 6.29 0 0 1 3.685-2.205c6.054-1.176 26.316-3.324 50.049.869 28.394 5.017 50.127 10.836 60.665 16.917 10.539 6.081 14.27 18.624 3.428 25.742-10.842 7.117-40.803 26.994-64.849 61.198-24.155 34.36-46.522 78.185-48.686 81.876-3.16 5.393-10.762 13.983-23.466 6.653-12.704-7.33-16.714-23.39-17.272-57.771-.559-34.381 8.408-80.103 15.908-96.268 6.461-13.929 15.843-31.245 20.538-37.011z" style="fill:#fff"/><radialGradient id="c" cx="291.803" cy="413.168" r="17.083" fx="290.098" fy="411.961" gradientTransform="rotate(29.985 523.51 438.178)" gradientUnits="userSpaceOnUse"><stop offset="0" style="stop-color:#eeebe9"/><stop offset="0" style="stop-color:#f9f8f8"/><stop offset="0" style="stop-color:#fff"/><stop offset=".102" style="stop-color:#f0f0f0"/><stop offset=".297" style="stop-color:#c9c9c9"/><stop offset=".366" style="stop-color:#bababa"/><stop offset=".4" style="stop-color:#b4b4b4"/><stop offset=".81" style="stop-color:#696e6f"/><stop offset="1" style="stop-color:#4c5354"/></radialGradient><circle cx="337.862" cy="307.349" r="17.083" style="fill:url(#c)"/><path d="M490.247 175.449a9.012 9.012 0 0 1 6.594-.24c6.639 2.317 5.159-.511 41.966 25.231 23.628 16.525 38.141 34.285 44.271 44.794 6.131 10.509 3.145 23.25-9.8 24.048-12.945.798-48.82 3.185-86.671 20.946-38.022 17.842-79.191 44.788-82.901 46.919-5.42 3.114-16.282 6.798-23.674-5.87-7.391-12.668-2.901-28.601 13.676-58.727 16.578-30.125 47.054-65.369 61.588-75.681 11.825-8.39 27.41-18.111 34.951-21.42z" style="fill:#fff"/><path d="M594.131 283.55c1.46.23 2.785.963 3.759 2.076 4.062 4.642 17.084 20.719 24.416 43.698 8.766 27.469 15.842 48.777 15.885 60.944.043 12.167-8.923 21.699-20.526 15.907-11.604-5.792-43.852-21.694-85.508-25.278-41.847-3.601-90.975-.897-95.254-.91-6.25-.02-17.498-2.271-17.55-16.938-.053-14.667 11.813-26.209 41.249-43.981 29.438-17.772 73.466-33.012 91.211-34.659 15.289-1.419 34.973-2.019 42.318-.859z" style="fill:#fff"/><path d="M628.562 429.164a6.291 6.291 0 0 1 2.194 3.69c1.157 6.058 4.269 26.513-1.02 50.047-6.321 28.132-10.985 50.094-17.098 60.614-6.112 10.52-18.666 14.213-25.751 3.35-7.086-10.862-26.872-40.882-61.005-65.03-34.288-24.258-78.045-46.756-81.73-48.931-5.384-3.176-13.95-10.803-6.583-23.485 7.368-12.682 23.44-16.644 57.822-17.1 34.383-.456 80.077 8.647 96.22 16.195 13.91 6.504 31.199 15.937 36.951 20.65z" style="fill:#fff"/><path d="M584.729 571.76a6.279 6.279 0 0 1 .085 4.293c-1.984 5.839-9.384 25.161-25.606 43.012-19.392 21.338-34.296 38.131-44.807 44.259-10.511 6.128-23.251 3.138-24.045-9.808-.795-12.944-3.172-48.82-20.921-86.676-17.831-38.028-44.765-79.205-46.896-82.916-3.112-5.42-6.793-16.284 5.877-23.672 12.671-7.387 28.603-2.894 58.723 13.693 30.121 16.587 65.354 47.073 75.663 61.609 8.882 12.527 19.255 29.268 21.927 36.206z" style="fill:#fff"/><path d="M474.999 673.839a6.286 6.286 0 0 1-2.09 3.751c-4.656 4.043-20.784 17.005-43.791 24.249-27.503 8.659-48.838 15.653-61.005 15.65-12.166-.004-21.664-9.006-15.827-20.588 5.836-11.582 21.861-43.768 25.605-85.41 3.761-41.832 1.246-90.97 1.275-95.249.043-6.25 2.338-17.489 17.005-17.485 14.666.004 26.163 11.913 43.822 41.418 17.658 29.505 32.73 73.592 34.309 91.342 1.361 15.295 1.886 34.983.697 42.322z" style="fill:#fff"/><path d="M330.802 708.062a6.289 6.289 0 0 1-3.667 2.234c-6.045 1.224-26.062 2.007-50.055-.477-38.867-4.022-50.21-10.442-60.796-16.439-10.586-5.998-14.415-18.512-3.629-25.714 10.786-7.203 40.589-27.313 64.366-61.706 23.885-34.548 45.908-78.547 48.042-82.256 3.117-5.417 10.652-14.066 23.413-6.837 12.761 7.23 16.897 23.259 17.726 57.634.829 34.376-7.779 80.166-15.151 96.39-6.354 13.98-15.598 31.369-20.249 37.171z" style="fill:#fff"/><path d="M187.452 664.212a6.29 6.29 0 0 1-4.293.064c-5.83-2.013-25.116-9.504-42.889-25.811-21.246-19.494-37.967-34.478-44.045-45.018-6.078-10.539-3.027-23.265 9.921-23.998 12.948-.733 48.835-2.938 86.775-20.509 38.113-17.649 79.417-44.387 83.138-46.499 5.435-3.087 16.316-6.716 23.644 5.989 7.327 12.705 2.757 28.615-13.972 58.657-16.73 30.041-47.383 65.129-61.969 75.368-12.568 8.825-29.358 19.118-36.31 21.757z" style="fill:#fff"/><path d="M85.634 555.179a6.3 6.3 0 0 1-3.765-2.064c-4.074-4.63-17.144-20.67-24.542-43.628-8.844-27.443-15.982-48.731-16.061-60.897-.079-12.166 8.86-21.725 20.48-15.966 11.621 5.758 43.914 21.567 85.581 25.031 41.856 3.479 90.977.634 95.256.634 6.25.002 17.504 2.221 17.599 16.887.095 14.667-11.737 26.243-41.122 44.101-29.385 17.856-73.371 33.225-91.11 34.923-15.285 1.462-34.968 2.118-42.316.979z" style="fill:#fff"/><path d="M51.772 409.186a6.29 6.29 0 0 1-2.211-3.68c-1.187-6.052-4.393-26.492.785-50.051 6.189-28.162 10.751-50.146 16.814-60.694 6.063-10.549 18.6-14.3 25.736-3.471 7.136 10.83 27.063 40.757 61.308 64.745 34.4 24.097 78.263 46.391 81.958 48.548 5.398 3.151 14 10.738 6.692 23.454-7.308 12.716-23.362 16.754-57.742 17.37-34.38.617-80.116-8.272-96.294-15.745-13.94-6.439-31.272-15.79-37.046-20.476z" style="fill:#fff"/><path d="M93.919 267.102a6.289 6.289 0 0 1-.111-4.292c1.95-5.851 11.241-23.599 25.345-43.167 22.847-31.7 34.063-38.338 44.537-44.53 10.474-6.192 23.231-3.279 24.105 9.661.874 12.94 3.467 48.801 21.447 86.548 18.062 37.919 45.245 78.931 47.398 82.629 3.145 5.401 6.892 16.243-5.733 23.707-12.625 7.464-28.584 3.067-58.805-13.336s-65.639-46.675-76.036-61.148c-8.958-12.472-19.432-29.15-22.147-36.072z" style="fill:#fff"/><radialGradient id="d" cx="348.545" cy="398.081" r="17.083" fx="346.84" fy="396.874" gradientTransform="rotate(29.985 523.51 438.178)" gradientUnits="userSpaceOnUse"><stop offset="0" style="stop-color:#eeebe9"/><stop offset="0" style="stop-color:#f9f8f8"/><stop offset="0" style="stop-color:#fff"/><stop offset=".102" style="stop-color:#f0f0f0"/><stop offset=".297" style="stop-color:#c9c9c9"/><stop offset=".366" style="stop-color:#bababa"/><stop offset=".4" style="stop-color:#b4b4b4"/><stop offset=".81" style="stop-color:#696e6f"/><stop offset="1" style="stop-color:#4c5354"/></radialGradient><circle cx="394.553" cy="322.641" r="17.083" style="fill:url(#d)"/><radialGradient id="e" cx="404.449" cy="412.622" r="17.082" fx="402.744" fy="411.415" gradientTransform="rotate(29.985 523.51 438.178)" gradientUnits="userSpaceOnUse"><stop offset="0" style="stop-color:#eeebe9"/><stop offset="0" style="stop-color:#f9f8f8"/><stop offset="0" style="stop-color:#fff"/><stop offset=".102" style="stop-color:#f0f0f0"/><stop offset=".297" style="stop-color:#c9c9c9"/><stop offset=".366" style="stop-color:#bababa"/><stop offset=".4" style="stop-color:#b4b4b4"/><stop offset=".81" style="stop-color:#696e6f"/><stop offset="1" style="stop-color:#4c5354"/></radialGradient><circle cx="435.709" cy="363.177" r="17.083" style="fill:url(#e)"/><radialGradient id="f" cx="631.244" cy="480.02" r="17.082" fx="629.539" fy="478.813" gradientTransform="rotate(29.985 523.51 438.178)" gradientUnits="userSpaceOnUse"><stop offset="0" style="stop-color:#eeebe9"/><stop offset="0" style="stop-color:#f9f8f8"/><stop offset="0" style="stop-color:#fff"/><stop offset=".102" style="stop-color:#f0f0f0"/><stop offset=".297" style="stop-color:#c9c9c9"/><stop offset=".366" style="stop-color:#bababa"/><stop offset=".4" style="stop-color:#b4b4b4"/><stop offset=".81" style="stop-color:#696e6f"/><stop offset="1" style="stop-color:#4c5354"/></radialGradient><circle cx="598.474" cy="534.909" r="17.083" style="fill:url(#f)"/><radialGradient id="g" cx="607.967" cy="624.63" r="17.083" fx="606.261" fy="623.423" gradientTransform="rotate(29.985 523.51 438.178)" gradientUnits="userSpaceOnUse"><stop offset="0" style="stop-color:#eeebe9"/><stop offset="0" style="stop-color:#f9f8f8"/><stop offset="0" style="stop-color:#fff"/><stop offset=".102" style="stop-color:#f0f0f0"/><stop offset=".297" style="stop-color:#c9c9c9"/><stop offset=".366" style="stop-color:#bababa"/><stop offset=".4" style="stop-color:#b4b4b4"/><stop offset=".81" style="stop-color:#696e6f"/><stop offset="1" style="stop-color:#4c5354"/></radialGradient><circle cx="506.035" cy="648.537" r="17.083" style="fill:url(#g)"/><radialGradient id="h" cx="515.275" cy="738.955" r="17.083" fx="513.57" fy="737.748" gradientTransform="rotate(29.985 523.51 438.178)" gradientUnits="userSpaceOnUse"><stop offset="0" style="stop-color:#eeebe9"/><stop offset="0" style="stop-color:#f9f8f8"/><stop offset="0" style="stop-color:#fff"/><stop offset=".102" style="stop-color:#f0f0f0"/><stop offset=".297" style="stop-color:#c9c9c9"/><stop offset=".366" style="stop-color:#bababa"/><stop offset=".4" style="stop-color:#b4b4b4"/><stop offset=".81" style="stop-color:#696e6f"/><stop offset="1" style="stop-color:#4c5354"/></radialGradient><circle cx="368.606" cy="701.238" r="17.084" style="fill:url(#h)"/><radialGradient id="i" cx="443.273" cy="772.566" r="17.082" fx="441.568" fy="771.359" gradientTransform="rotate(29.985 523.51 438.178)" gradientUnits="userSpaceOnUse"><stop offset="0" style="stop-color:#eeebe9"/><stop offset="0" style="stop-color:#f9f8f8"/><stop offset="0" style="stop-color:#fff"/><stop offset=".102" style="stop-color:#f0f0f0"/><stop offset=".297" style="stop-color:#c9c9c9"/><stop offset=".366" style="stop-color:#bababa"/><stop offset=".4" style="stop-color:#b4b4b4"/><stop offset=".81" style="stop-color:#696e6f"/><stop offset="1" style="stop-color:#4c5354"/></radialGradient><circle cx="289.439" cy="694.364" r="17.083" style="fill:url(#i)"/><radialGradient id="j" cx="319.429" cy="785.248" r="17.082" fx="317.724" fy="784.041" gradientTransform="rotate(29.985 523.51 438.178)" gradientUnits="userSpaceOnUse"><stop offset="0" style="stop-color:#eeebe9"/><stop offset="0" style="stop-color:#f9f8f8"/><stop offset="0" style="stop-color:#fff"/><stop offset=".102" style="stop-color:#f0f0f0"/><stop offset=".297" style="stop-color:#c9c9c9"/><stop offset=".366" style="stop-color:#bababa"/><stop offset=".4" style="stop-color:#b4b4b4"/><stop offset=".81" style="stop-color:#696e6f"/><stop offset="1" style="stop-color:#4c5354"/></radialGradient><circle cx="175.827" cy="643.452" r="17.083" style="fill:url(#j)"/><radialGradient id="k" cx="253.971" cy="687.841" r="17.083" fx="252.266" fy="686.634" gradientTransform="rotate(29.985 523.51 438.178)" gradientUnits="userSpaceOnUse"><stop offset="0" style="stop-color:#eeebe9"/><stop offset="0" style="stop-color:#f9f8f8"/><stop offset="0" style="stop-color:#fff"/><stop offset=".102" style="stop-color:#f0f0f0"/><stop offset=".297" style="stop-color:#c9c9c9"/><stop offset=".366" style="stop-color:#bababa"/><stop offset=".4" style="stop-color:#b4b4b4"/><stop offset=".81" style="stop-color:#696e6f"/><stop offset="1" style="stop-color:#4c5354"/></radialGradient><circle cx="167.811" cy="526.363" r="17.083" style="fill:url(#k)"/><radialGradient id="l" cx="233.052" cy="586.244" r="17.083" fx="231.346" fy="585.037" gradientTransform="rotate(29.985 523.51 438.178)" gradientUnits="userSpaceOnUse"><stop offset="0" style="stop-color:#eeebe9"/><stop offset="0" style="stop-color:#f9f8f8"/><stop offset="0" style="stop-color:#fff"/><stop offset=".102" style="stop-color:#f0f0f0"/><stop offset=".297" style="stop-color:#c9c9c9"/><stop offset=".366" style="stop-color:#bababa"/><stop offset=".4" style="stop-color:#b4b4b4"/><stop offset=".81" style="stop-color:#696e6f"/><stop offset="1" style="stop-color:#4c5354"/></radialGradient><circle cx="200.469" cy="427.903" r="17.083" style="fill:url(#l)"/><radialGradient id="m" cx="236.545" cy="510.658" r="17.082" fx="234.84" fy="509.451" gradientTransform="rotate(29.985 523.51 438.178)" gradientUnits="userSpaceOnUse"><stop offset="0" style="stop-color:#eeebe9"/><stop offset="0" style="stop-color:#f9f8f8"/><stop offset="0" style="stop-color:#fff"/><stop offset=".102" style="stop-color:#f0f0f0"/><stop offset=".297" style="stop-color:#c9c9c9"/><stop offset=".366" style="stop-color:#bababa"/><stop offset=".4" style="stop-color:#b4b4b4"/><stop offset=".81" style="stop-color:#696e6f"/><stop offset="1" style="stop-color:#4c5354"/></radialGradient><circle cx="241.273" cy="364.177" r="17.083" style="fill:url(#m)"/></g></svg>