<svg width="357" height="269" fill="none" xmlns="http://www.w3.org/2000/svg"><path fill-rule="evenodd" clip-rule="evenodd" d="m128.02 158.312 50.516 34.54 48.695-33.594 109.152 107.689a29.686 29.686 0 0 1-9.139 1.428H29.756c-3.927 0-7.675-.768-11.12-2.142L128.02 158.312ZM357 69.812v168.807c0 4.409-.964 8.586-2.677 12.352L247.33 145.406 357 69.812ZM0 70.758l107.85 73.756L1.892 249.079A29.683 29.683 0 0 1 0 238.619V70.758ZM327.244.625C343.666.625 357 13.941 357 30.381v10.46L178.464 163.917 0 41.858V30.381C0 13.959 13.316.625 29.756.625h297.488Z" fill="#fff"/></svg>